# xmcd CD database file
#
# Track frame offsets:
#	150
#	12207
#	23750
#	41120
#	52057
#	62989
#	75375
#	88925
#	101802
#	114442
#	124572
#	137652
#	153782
#	164365
#	174927
#	191247
#
# Disc length: 2695 seconds
#
# Revision: 1
# Processed by: cddbd v1.4PL0 Copyright (c) Steve Scherf et al.
# Submitted via: CDex 1.50Beta7
#
DISCID=cf0a8510
DTITLE=John Prine - In Spite Of Ourselves
DYEAR=2002
DGENRE=Country
TTITLE0=(We're Not) The Jet Set
TTITLE1=So Sad (To Watch Love Go Bad)
TTITLE2=Wedding Bells - Let's Turn Back The Years
TTITLE3=When Two Worlds Collide
TTITLE4=Milwaukee Here I Come
TTITLE5=I Know One
TTITLE6=It's A Cheating Situation
TTITLE7=Back Street Affair
TTITLE8=Loose Talk
TTITLE9=Let's Invite Them Over
TTITLE10='Til A Tear Becomes A Rose
TTITLE11=In A Town This Size
TTITLE12=We Could
TTITLE13=We Must Have Been Out Of Our Minds
TTITLE14=In Spite Of Ourselves
TTITLE15=Dear John (I Sent Your Saddle Home)
EXTD=YEAR: 2002
EXTT0=
EXTT1=
EXTT2=
EXTT3=
EXTT4=
EXTT5=
EXTT6=
EXTT7=
EXTT8=
EXTT9=
EXTT10=
EXTT11=
EXTT12=
EXTT13=
EXTT14=
EXTT15=
PLAYORDER=
